<?xml version="1.0" encoding="utf-8"?>
<!-- Generator: Adobe Illustrator 21.0.2, SVG Export Plug-In . SVG Version: 6.00 Build 0)  -->
<svg version="1.1" id="Layer_1" xmlns="http://www.w3.org/2000/svg" xmlns:xlink="http://www.w3.org/1999/xlink" x="0px" y="0px"
	 viewBox="0 0 91.5 85.5" style="enable-background:new 0 0 91.5 85.5;" xml:space="preserve">
<style type="text/css">
	.st0{fill:#FFFFFF;}
</style>
<title>Asset 2</title>
<g id="Layer_2">
	<g id="Layer_1-2">
		<g id="Header">
			<path id="Logo" class="st0" d="M45.5,63.5c-0.5-3.1-1.1-5.9-1.4-8.7c-0.4-3.5-0.8-7-1.1-10.6c-0.2-2.6-0.3-5.2-0.3-7.8
				c-0.1-2.6,1-3.9,3.5-4.5c4.3-0.9,8.6-1.8,12.9-2.6c2.3-0.4,4.7-0.6,7.3-1c-0.3-0.8-0.5-1.6-0.8-2.4c-4.1-9.4-11.5-14.8-21.2-17.2
				C42,8.1,39.5,7.8,37,7.8c-2.6-0.2-3.9-1.2-4-3.4c-0.1-2.3,1.7-4.3,4-4.4c5.1-0.1,10.1,0.9,14.8,2.9C63,7.5,70.6,15.5,74.1,27.1
				c0.1,0.8,0.9,1.4,1.7,1.3c0,0,0.1,0,0.1,0c2.9-0.1,5.9,0,8.8,0c2.3,0,3.6,0.9,3.9,3.2c1,6,1.9,11.9,2.6,17.9
				c0.3,3.9,0.4,7.7,0.3,11.6c-0.1,5.3-1.4,10.5-4,15.1c-2.7,4.6-7.3,7.8-12.6,8.7c-5.8,1.2-11.4,0.8-16.6-2.1
				c-4.1-2.4-7.3-6-9.2-10.3c-0.4-1-1.4-1.7-2.5-1.5c-11.5,0.3-22.9-2.8-32.8-8.7C4.7,56.8,0.2,48.7,0,38c-0.1-10.3,3-19.5,9.9-27.2
				c2.7-3,6-5.3,9.8-6.7c2.8-1.1,5.1,0.2,5.6,3.1c0.3,1.5-0.4,3-1.8,3.7C13.1,15.4,9.2,24,8.1,34.6C7.5,39.8,8.6,45,11.3,49.4
				c2.5,4.1,6.5,6.5,10.8,8.5c6.6,3,13.7,4.9,21,5.4C43.9,63.5,44.7,63.6,45.5,63.5z M55.7,70c0.2,0.4,0.4,0.7,0.6,1.1
				c4.2,6.6,9.5,7.9,15.8,7.1c4.9-0.4,9-3.8,10.4-8.5c1-3,1.6-6.1,1.8-9.2c0.5-7.2-0.5-14.4-1.8-21.5c-0.5-2.9-0.5-2.9-3.6-2.9h-2.1
				c-1-0.1-1.4,0.3-1.4,1.4c0.1,4-0.6,8.1-1.8,11.9c-2.5,8-6.8,14.7-14.3,18.9C58.2,68.8,57,69.3,55.7,70z"/>
		</g>
	</g>
</g>
</svg>
