<svg xmlns="http://www.w3.org/2000/svg" viewBox="0 0 91.54 85.54"><defs><style>.cls-1{fill:#4c789e;}</style></defs><title>Asset 2</title><g id="Layer_2" data-name="Layer 2"><g id="Layer_1-2" data-name="Layer 1"><g id="Header"><path id="Logo" class="cls-1" d="M45.5,63.51c-.5-3.1-1.1-5.9-1.4-8.7-.4-3.5-.8-7-1.1-10.6q-.3-3.9-.3-7.8c-.1-2.6,1-3.9,3.5-4.5,4.3-.9,8.6-1.8,12.9-2.6,2.3-.4,4.7-.6,7.3-1-.3-.8-.5-1.6-.8-2.4-4.1-9.4-11.5-14.8-21.2-17.2a30.6,30.6,0,0,0-7.4-.9c-2.6-.2-3.9-1.2-4-3.4A4.23,4.23,0,0,1,37,0a35.87,35.87,0,0,1,14.8,2.9c11.2,4.6,18.8,12.6,22.3,24.2a1.52,1.52,0,0,0,1.8,1.3c2.9-.1,5.9,0,8.8,0,2.3,0,3.6.9,3.9,3.2,1,6,1.9,11.9,2.6,17.9a112.32,112.32,0,0,1,.3,11.6,31.82,31.82,0,0,1-4,15.1,18.13,18.13,0,0,1-12.6,8.7c-5.8,1.2-11.4.8-16.6-2.1a22.42,22.42,0,0,1-9.2-10.3A2.3,2.3,0,0,0,46.6,71a61.15,61.15,0,0,1-32.8-8.7C4.7,56.81.2,48.71,0,38c-.1-10.3,3-19.5,9.9-27.2a24.56,24.56,0,0,1,9.8-6.7c2.8-1.1,5.1.2,5.6,3.1a3.36,3.36,0,0,1-1.8,3.7C13.1,15.41,9.2,24,8.1,34.61a23.15,23.15,0,0,0,3.2,14.8c2.5,4.1,6.5,6.5,10.8,8.5a60.87,60.87,0,0,0,21,5.4A6.52,6.52,0,0,0,45.5,63.51ZM55.7,70a10.91,10.91,0,0,0,.6,1.1c4.2,6.6,9.5,7.9,15.8,7.1a11.89,11.89,0,0,0,10.4-8.5,36.57,36.57,0,0,0,1.8-9.2c.5-7.2-.5-14.4-1.8-21.5-.5-2.9-.5-2.9-3.6-2.9H76.8c-1-.1-1.4.3-1.4,1.4a37,37,0,0,1-1.8,11.9c-2.5,8-6.8,14.7-14.3,18.9C58.2,68.81,57,69.31,55.7,70Z"/></g></g></g></svg>