<?xml version="1.0" encoding="utf-8"?>
<!-- Generator: Adobe Illustrator 21.0.2, SVG Export Plug-In . SVG Version: 6.00 Build 0)  -->
<svg version="1.1" id="Layer_1" xmlns="http://www.w3.org/2000/svg" xmlns:xlink="http://www.w3.org/1999/xlink" x="0px" y="0px"
	 viewBox="0 0 76 75" style="enable-background:new 0 0 76 75;" xml:space="preserve">
<style type="text/css">
	.st0{fill:none;enable-background:new    ;}
	.st1{fill:#4C799F;}
</style>
<path class="st0" d="z"/>
<g>
	<path class="st1" d="M72.7,32.4h-8C64.6,14.7,50.2,0.3,32.5,0.3c-3.1,0-6.1,0.4-9,1.3c-1.6,0.5-2.5,2.1-2,3.7
		c0.5,1.6,2.1,2.5,3.7,2c2.4-0.7,4.9-1.1,7.4-1.1c14.4,0,26.2,11.7,26.2,26.1h-16c-1.7,0-3,1.3-3,3v21.3c0,0.4,0,0.7,0,1
		c-2.3,0.7-4.7,1-7.2,1C18,58.8,6.3,47,6.3,32.5c0-8.4,4.1-16.4,10.9-21.3c1.3-1,1.6-2.8,0.7-4.2c-1-1.4-2.8-1.7-4.2-0.7
		c-8.4,6-13.4,15.8-13.4,26.2c0,17.8,14.5,32.2,32.2,32.2c3,0,5.9-0.4,8.6-1.2c2.7,6.5,9.1,11.1,16.6,11.1c9.9,0,18-8.1,18-18V35.4
		C75.7,33.7,74.4,32.4,72.7,32.4z M69.7,56.7c0,6.6-5.4,12-12,12c-4.9,0-9.2-3-11-7.2c9-4.4,15.6-12.9,17.5-23.1h5.5V56.7z"/>
</g>
</svg>
