<?xml version="1.0" encoding="utf-8"?>
<!-- Generator: Adobe Illustrator 21.0.2, SVG Export Plug-In . SVG Version: 6.00 Build 0)  -->
<svg version="1.1" id="Layer_1" xmlns="http://www.w3.org/2000/svg" xmlns:xlink="http://www.w3.org/1999/xlink" x="0px" y="0px"
	 viewBox="0 0 18.7 29.2" style="enable-background:new 0 0 18.7 29.2;" xml:space="preserve">
<style type="text/css">
	.st0{fill:#85C3CB;}
</style>
<title>Asset 5</title>
<g id="Layer_2">
	<g id="Layer_1-2">
		<g id="Header">
			<g id="Profile">
				<ellipse id="Ellipse_6" class="st0" cx="9.3" cy="5.2" rx="5.3" ry="5.2"/>
				<path id="Path_10" class="st0" d="M10.9,29.2H7.8c-4.2,0-7.7-3.4-7.7-7.6v-2.2c0-4.2,3.4-7.7,7.6-7.7h3.2c4.2,0,7.7,3.4,7.7,7.6
					v2.2C18.5,25.7,15.1,29.1,10.9,29.2z"/>
				<path id="Path_11" class="st0" d="M16.7,29.2H2c-1.1,0-2-0.9-2-2v-6.5c0-1.1,0.9-2,2-2h14.7c1.1,0,2,0.9,2,2v6.5
					C18.7,28.3,17.8,29.2,16.7,29.2z"/>
			</g>
		</g>
	</g>
</g>
</svg>
