<svg xmlns="http://www.w3.org/2000/svg" viewBox="0 0 18.7 29.2"><defs><style>.cls-1{fill:#4c789e;}</style></defs><title>Asset 5</title><g id="Layer_2" data-name="Layer 2"><g id="Layer_1-2" data-name="Layer 1"><g id="Header"><g id="Profile"><ellipse id="Ellipse_6" data-name="Ellipse 6" class="cls-1" cx="9.3" cy="5.2" rx="5.3" ry="5.2"/><path id="Path_10" data-name="Path 10" class="cls-1" d="M10.9,29.2H7.8A7.68,7.68,0,0,1,.1,21.6V19.4a7.68,7.68,0,0,1,7.6-7.7h3.2a7.68,7.68,0,0,1,7.7,7.6v2.2A7.9,7.9,0,0,1,10.9,29.2Z"/><path id="Path_11" data-name="Path 11" class="cls-1" d="M16.7,29.2H2a2,2,0,0,1-2-2V20.7a2,2,0,0,1,2-2H16.7a2,2,0,0,1,2,2v6.5A2,2,0,0,1,16.7,29.2Z"/></g></g></g></g></svg>